<svg width="21" height="22" viewBox="0 0 21 22" fill="none" xmlns="http://www.w3.org/2000/svg">
<g clip-path="url(#clip0_566_690)">
<mask id="mask0_566_690" style="mask-type:luminance" maskUnits="userSpaceOnUse" x="0" y="0" width="20" height="21">
<path d="M19.8346 0H0V20.8712H19.8346V0Z" fill="white"/>
</mask>
<g mask="url(#mask0_566_690)">
<path d="M19.8346 10.4355C19.8346 4.67076 15.3958 0 9.91732 0C4.4388 0 0 4.67076 0 10.4355C0 15.6441 3.62661 19.9613 8.36772 20.7448V13.4522H5.84842V10.4355H8.36772V8.13638C8.36772 5.52118 9.84736 4.0766 12.1135 4.0766C13.1988 4.0766 14.3337 4.28026 14.3337 4.28026V6.84708H13.0828C11.8512 6.84708 11.4669 7.65163 11.4669 8.47679V10.4355H14.2174L13.7774 13.4522H11.4669V20.7448C16.208 19.9613 19.8346 15.6441 19.8346 10.4355Z" fill="#989592"/>
</g>
</g>
<defs>
<clipPath id="clip0_566_690">
<rect width="20.4024" height="21.426" fill="white"/>
</clipPath>
</defs>
</svg>
