<svg width="21" height="22" viewBox="0 0 21 22" fill="none" xmlns="http://www.w3.org/2000/svg">
<g clip-path="url(#clip0_566_697)">
<mask id="mask0_566_697" style="mask-type:luminance" maskUnits="userSpaceOnUse" x="0" y="0" width="20" height="21">
<path d="M19.8346 0H0V20.8712H19.8346V0Z" fill="white"/>
</mask>
<g mask="url(#mask0_566_697)">
<path d="M9.91945 5.08447C7.10528 5.08447 4.83531 7.4736 4.83531 10.4355C4.83531 13.3975 7.10528 15.7866 9.91945 15.7866C12.7337 15.7866 15.0037 13.3975 15.0037 10.4355C15.0037 7.4736 12.7337 5.08447 9.91945 5.08447ZM9.91945 13.9144C8.10088 13.9144 6.61412 12.3543 6.61412 10.4355C6.61412 8.51682 8.09646 6.95666 9.91945 6.95666C11.7426 6.95666 13.2249 8.51682 13.2249 10.4355C13.2249 12.3543 11.7381 13.9144 9.91945 13.9144ZM16.3976 4.86558C16.3976 5.55951 15.8666 6.1137 15.2116 6.1137C14.5524 6.1137 14.0259 5.55485 14.0259 4.86558C14.0259 4.17633 14.5568 3.61746 15.2116 3.61746C15.8666 3.61746 16.3976 4.17633 16.3976 4.86558ZM19.7649 6.13234C19.6897 4.46042 19.3268 2.97943 18.1632 1.75925C17.0038 0.539068 15.5967 0.157179 14.0081 0.0733505C12.3709 -0.0244502 7.46369 -0.0244502 5.82649 0.0733505C4.24238 0.152522 2.83526 0.53441 1.6715 1.75459C0.507758 2.97478 0.149341 4.45576 0.0696922 6.12768C-0.0232307 7.85084 -0.0232307 13.0156 0.0696922 14.7388C0.144915 16.4108 0.507758 17.8917 1.6715 19.1119C2.83526 20.332 4.23794 20.714 5.82649 20.7977C7.46369 20.8955 12.3709 20.8955 14.0081 20.7977C15.5967 20.7186 17.0038 20.3367 18.1632 19.1119C19.3223 17.8917 19.6853 16.4108 19.7649 14.7388C19.8578 13.0156 19.8578 7.85549 19.7649 6.13234ZM17.6498 16.5876C17.3047 17.5006 16.6365 18.2037 15.7648 18.5717C14.4595 19.1165 11.3621 18.9907 9.91945 18.9907C8.477 18.9907 5.37515 19.1119 4.07422 18.5717C3.20695 18.2084 2.53879 17.5051 2.18922 16.5876C1.6715 15.2138 1.79098 11.9539 1.79098 10.4355C1.79098 8.91733 1.67593 5.65265 2.18922 4.28344C2.53436 3.37064 3.20252 2.66739 4.07422 2.29948C5.37957 1.75459 8.477 1.88034 9.91945 1.88034C11.3621 1.88034 14.4639 1.75925 15.7648 2.29948C16.6321 2.66274 17.3003 3.36598 17.6498 4.28344C18.1676 5.65731 18.048 8.91733 18.048 10.4355C18.048 11.9539 18.1676 15.2185 17.6498 16.5876Z" fill="#989592"/>
</g>
</g>
<defs>
<clipPath id="clip0_566_697">
<rect width="20.4024" height="21.426" fill="white"/>
</clipPath>
</defs>
</svg>
