<svg width="22" height="21" viewBox="0 0 22 21" fill="none" xmlns="http://www.w3.org/2000/svg">
<g clip-path="url(#clip0_566_704)">
<mask id="mask0_566_704" style="mask-type:luminance" maskUnits="userSpaceOnUse" x="0" y="0" width="22" height="20">
<path d="M21.3823 0H0V19.2205H21.3823V0Z" fill="white"/>
</mask>
<g mask="url(#mask0_566_704)">
<path d="M19.1844 4.71568C19.198 4.92263 19.198 5.12962 19.198 5.33656C19.198 11.6488 14.7886 18.9219 6.72947 18.9219C4.24661 18.9219 1.94015 18.1384 0 16.7784C0.352766 16.8227 0.691919 16.8376 1.05826 16.8376C3.10692 16.8376 4.99282 16.0837 6.49881 14.7975C4.57223 14.7532 2.9577 13.3784 2.40142 11.4861C2.6728 11.5304 2.94412 11.5601 3.22906 11.5601C3.62251 11.5601 4.016 11.5009 4.38229 11.3976C2.37431 10.9539 0.868282 9.03225 0.868282 6.71136V6.65225C1.45166 7.00704 2.13009 7.22878 2.84911 7.2583C1.66875 6.40089 0.895426 4.93742 0.895426 3.28173C0.895426 2.39478 1.11247 1.58174 1.49237 0.87216C3.64962 3.76957 6.89225 5.66173 10.5283 5.86872C10.4605 5.51394 10.4198 5.14441 10.4198 4.77484C10.4198 2.14348 12.3735 0 14.8021 0C16.0638 0 17.2035 0.576526 18.004 1.50784C18.9944 1.3009 19.9441 0.901737 20.7852 0.354788C20.4596 1.46352 19.7677 2.39483 18.8587 2.9861C19.7406 2.88268 20.5954 2.61653 21.3823 2.24699C20.7853 3.19305 20.0391 4.03563 19.1844 4.71568Z" fill="#989592"/>
</g>
</g>
<defs>
<clipPath id="clip0_566_704">
<rect width="21.6863" height="20.0902" fill="white"/>
</clipPath>
</defs>
</svg>
