<svg width="23" height="18" viewBox="0 0 23 18" fill="none" xmlns="http://www.w3.org/2000/svg">
<g clip-path="url(#clip0_566_711)">
<mask id="mask0_566_711" style="mask-type:luminance" maskUnits="userSpaceOnUse" x="0" y="0" width="23" height="17">
<path d="M22.9203 0H6.10352e-05V16.8328H22.9203V0Z" fill="white"/>
</mask>
<g mask="url(#mask0_566_711)">
<path d="M22.4414 2.63376C22.1779 1.59705 21.4012 0.780575 20.4151 0.503492C18.6276 0 11.4602 0 11.4602 0C11.4602 0 4.29286 0 2.5054 0.503492C1.51927 0.780619 0.742606 1.59705 0.479002 2.63376C6.10352e-05 4.51284 6.10352e-05 8.43339 6.10352e-05 8.43339C6.10352e-05 8.43339 6.10352e-05 12.354 0.479002 14.233C0.742606 15.2698 1.51927 16.0521 2.5054 16.3293C4.29286 16.8328 11.4602 16.8328 11.4602 16.8328C11.4602 16.8328 18.6276 16.8328 20.4151 16.3293C21.4012 16.0521 22.1779 15.2698 22.4414 14.233C22.9203 12.354 22.9203 8.43339 22.9203 8.43339C22.9203 8.43339 22.9203 4.51284 22.4414 2.63376ZM9.11607 11.9929V4.87383L15.1066 8.43347L9.11607 11.9929Z" fill="#989592"/>
</g>
</g>
<defs>
<clipPath id="clip0_566_711">
<rect width="22.9527" height="17.4011" fill="white"/>
</clipPath>
</defs>
</svg>
